<svg xmlns="http://www.w3.org/2000/svg" width="1280" height="720" viewBox="0 0 1280 720">
<defs>
  <linearGradient id="bg" x1="0" y1="0" x2="1" y2="1">
    <stop stop-color="#07140c"/><stop offset="1" stop-color="#020705"/>
  </linearGradient>
  <linearGradient id="top" x1="0" y1="0" x2="1" y2="0">
    <stop stop-color="#32e875" stop-opacity=".20"/><stop offset="1" stop-color="#ffd447" stop-opacity=".06"/>
  </linearGradient>
  <filter id="shadow"><feDropShadow dx="0" dy="18" stdDeviation="22" flood-opacity=".45"/></filter>
</defs>
<rect width="1280" height="720" rx="34" fill="url(#bg)"/>
<rect x="24" y="24" width="1232" height="672" rx="28" fill="#09140d" stroke="#ffffff" stroke-opacity=".10" filter="url(#shadow)"/>
<rect x="24" y="24" width="1232" height="86" rx="28" fill="url(#top)"/>
<circle cx="62" cy="67" r="8" fill="#ff6b6b"/><circle cx="88" cy="67" r="8" fill="#ffd447"/><circle cx="114" cy="67" r="8" fill="#32e875"/>
<text x="154" y="62" fill="#f7fff9" font-family="Arial, sans-serif" font-size="27" font-weight="700">Gestão financeira</text>
<text x="154" y="87" fill="#91a497" font-family="Arial, sans-serif" font-size="15">Cada contratação e investimento afeta o futuro do clube</text>
<rect x="1080" y="49" width="130" height="36" rx="18" fill="#32e875" fill-opacity=".12" stroke="#32e875" stroke-opacity=".35"/>
<circle cx="1102" cy="67" r="5" fill="#32e875"/>
<text x="1117" y="73" fill="#32e875" font-family="Arial, sans-serif" font-size="14" font-weight="700">ONLINE</text>

<text x="82" y="158" fill="#f7fff9" font-family="Arial" font-size="28" font-weight="800">Finanças do clube</text>
<text x="82" y="184" fill="#8da194" font-family="Arial" font-size="15">Controle receitas, salários, patrocínios e investimentos</text>
<rect x="82" y="218" width="220" height="112" rx="20" fill="#32e875" fill-opacity=".09" stroke="#32e875" stroke-opacity=".24"/>
<text x="108" y="255" fill="#8da194" font-family="Arial" font-size="13">SALDO EM CAIXA</text>
<text x="108" y="298" fill="#f7fff9" font-family="Arial" font-size="30" font-weight="900">R$ 18,4 mi</text>
<rect x="320" y="218" width="220" height="112" rx="20" fill="#ffffff" fill-opacity=".035"/>
<text x="346" y="255" fill="#8da194" font-family="Arial" font-size="13">RECEITA MENSAL</text>
<text x="346" y="298" fill="#32e875" font-family="Arial" font-size="30" font-weight="900">+ R$ 6,2 mi</text>
<rect x="558" y="218" width="220" height="112" rx="20" fill="#ffffff" fill-opacity=".035"/>
<text x="584" y="255" fill="#8da194" font-family="Arial" font-size="13">FOLHA SALARIAL</text>
<text x="584" y="298" fill="#ffd447" font-family="Arial" font-size="30" font-weight="900">R$ 3,8 mi</text>
<rect x="82" y="360" width="696" height="230" rx="22" fill="#ffffff" fill-opacity=".025"/>
<text x="108" y="398" fill="#f7fff9" font-family="Arial" font-size="17" font-weight="800">Evolução do caixa</text>
<polyline points="150,445 235,408 320,426 405,352 490,330 575,270 660,292 745,214" fill="none" stroke="#32e875" stroke-width="5" stroke-linecap="round" stroke-linejoin="round"/>
<polyline points="150,520 150,445 235,408 320,426 405,352 490,330 575,270 660,292 745,214 745,520" fill="#32e875" fill-opacity=".08" stroke="none"/>
<circle cx="150" cy="445" r="6" fill="#32e875" stroke="#09140d" stroke-width="3"/><circle cx="235" cy="408" r="6" fill="#32e875" stroke="#09140d" stroke-width="3"/><circle cx="320" cy="426" r="6" fill="#32e875" stroke="#09140d" stroke-width="3"/><circle cx="405" cy="352" r="6" fill="#32e875" stroke="#09140d" stroke-width="3"/><circle cx="490" cy="330" r="6" fill="#32e875" stroke="#09140d" stroke-width="3"/><circle cx="575" cy="270" r="6" fill="#32e875" stroke="#09140d" stroke-width="3"/><circle cx="660" cy="292" r="6" fill="#32e875" stroke="#09140d" stroke-width="3"/><circle cx="745" cy="214" r="6" fill="#32e875" stroke="#09140d" stroke-width="3"/>
<rect x="828" y="218" width="360" height="372" rx="24" fill="#0e2015" stroke="#ffffff" stroke-opacity=".09"/>
<text x="862" y="262" fill="#f7fff9" font-family="Arial" font-size="20" font-weight="800">Distribuição de receitas</text>
<circle cx="1008" cy="385" r="89" fill="none" stroke="#1b3021" stroke-width="28"/>
<circle cx="1008" cy="385" r="89" fill="none" stroke="#32e875" stroke-width="28" stroke-dasharray="250 560" transform="rotate(-90 1008 385)"/>
<circle cx="1008" cy="385" r="89" fill="none" stroke="#ffd447" stroke-width="28" stroke-dasharray="150 560" stroke-dashoffset="-250" transform="rotate(-90 1008 385)"/>
<circle cx="1008" cy="385" r="89" fill="none" stroke="#73a7ff" stroke-width="28" stroke-dasharray="95 560" stroke-dashoffset="-400" transform="rotate(-90 1008 385)"/>
<text x="1008" y="380" text-anchor="middle" fill="#8da194" font-family="Arial" font-size="13">TOTAL</text>
<text x="1008" y="410" text-anchor="middle" fill="#f7fff9" font-family="Arial" font-size="22" font-weight="900">R$ 9,7 mi</text>
<circle cx="866" cy="532" r="6" fill="#32e875"/><text x="883" y="537" fill="#b8c8bd" font-family="Arial" font-size="13">Patrocínios</text>
<circle cx="982" cy="532" r="6" fill="#ffd447"/><text x="999" y="537" fill="#b8c8bd" font-family="Arial" font-size="13">Bilheteria</text>
<circle cx="1087" cy="532" r="6" fill="#73a7ff"/><text x="1104" y="537" fill="#b8c8bd" font-family="Arial" font-size="13">Vendas</text>

</svg>