<svg xmlns="http://www.w3.org/2000/svg" width="1280" height="720" viewBox="0 0 1280 720">
<defs>
  <linearGradient id="bg" x1="0" y1="0" x2="1" y2="1">
    <stop stop-color="#07140c"/><stop offset="1" stop-color="#020705"/>
  </linearGradient>
  <linearGradient id="top" x1="0" y1="0" x2="1" y2="0">
    <stop stop-color="#32e875" stop-opacity=".20"/><stop offset="1" stop-color="#ffd447" stop-opacity=".06"/>
  </linearGradient>
  <filter id="shadow"><feDropShadow dx="0" dy="18" stdDeviation="22" flood-opacity=".45"/></filter>
</defs>
<rect width="1280" height="720" rx="34" fill="url(#bg)"/>
<rect x="24" y="24" width="1232" height="672" rx="28" fill="#09140d" stroke="#ffffff" stroke-opacity=".10" filter="url(#shadow)"/>
<rect x="24" y="24" width="1232" height="86" rx="28" fill="url(#top)"/>
<circle cx="62" cy="67" r="8" fill="#ff6b6b"/><circle cx="88" cy="67" r="8" fill="#ffd447"/><circle cx="114" cy="67" r="8" fill="#32e875"/>
<text x="154" y="62" fill="#f7fff9" font-family="Arial, sans-serif" font-size="27" font-weight="700">O mundo reage às suas decisões</text>
<text x="154" y="87" fill="#91a497" font-family="Arial, sans-serif" font-size="15">Notícias dinâmicas, torcida, diretoria e mercado</text>
<rect x="1080" y="49" width="130" height="36" rx="18" fill="#32e875" fill-opacity=".12" stroke="#32e875" stroke-opacity=".35"/>
<circle cx="1102" cy="67" r="5" fill="#32e875"/>
<text x="1117" y="73" fill="#32e875" font-family="Arial, sans-serif" font-size="14" font-weight="700">ONLINE</text>

<text x="80" y="143" fill="#f7fff9" font-family="Arial" font-size="28" font-weight="800">Central de notícias</text>

<rect x="80" y="170" width="760" height="88" rx="18" fill="#ffffff" fill-opacity=".032" stroke="#ffffff" stroke-opacity=".06"/>
<rect x="104" y="188" width="100" height="24" rx="12" fill="#32e875" fill-opacity=".13"/>
<text x="154" y="205" text-anchor="middle" fill="#32e875" font-family="Arial" font-size="11" font-weight="900">MERCADO</text>
<text x="224" y="204" fill="#f7fff9" font-family="Arial" font-size="18" font-weight="800">Craque recebe proposta milionária da Europa</text>
<text x="224" y="231" fill="#829588" font-family="Arial" font-size="13">Negociação pode mudar os planos para a próxima rodada.</text>
<text x="807" y="221" text-anchor="end" fill="#5f7265" font-family="Arial" font-size="12">AGORA</text>
<rect x="80" y="276" width="760" height="88" rx="18" fill="#ffffff" fill-opacity=".032" stroke="#ffffff" stroke-opacity=".06"/>
<rect x="104" y="294" width="100" height="24" rx="12" fill="#ffd447" fill-opacity=".13"/>
<text x="154" y="311" text-anchor="middle" fill="#ffd447" font-family="Arial" font-size="11" font-weight="900">CAMPEONATO</text>
<text x="224" y="310" fill="#f7fff9" font-family="Arial" font-size="18" font-weight="800">Bahia surpreende e entra na briga pelo título</text>
<text x="224" y="337" fill="#829588" font-family="Arial" font-size="13">Sequência invicta aumenta pressão sobre os líderes.</text>
<text x="807" y="327" text-anchor="end" fill="#5f7265" font-family="Arial" font-size="12">AGORA</text>
<rect x="80" y="382" width="760" height="88" rx="18" fill="#ffffff" fill-opacity=".032" stroke="#ffffff" stroke-opacity=".06"/>
<rect x="104" y="400" width="100" height="24" rx="12" fill="#73a7ff" fill-opacity=".13"/>
<text x="154" y="417" text-anchor="middle" fill="#73a7ff" font-family="Arial" font-size="11" font-weight="900">VESTIÁRIO</text>
<text x="224" y="416" fill="#f7fff9" font-family="Arial" font-size="18" font-weight="800">Capitão pede foco antes do clássico decisivo</text>
<text x="224" y="443" fill="#829588" font-family="Arial" font-size="13">Moral do elenco sobe após reunião com o treinador.</text>
<text x="807" y="433" text-anchor="end" fill="#5f7265" font-family="Arial" font-size="12">AGORA</text>
<rect x="80" y="488" width="760" height="88" rx="18" fill="#ffffff" fill-opacity=".032" stroke="#ffffff" stroke-opacity=".06"/>
<rect x="104" y="506" width="100" height="24" rx="12" fill="#ff8f5c" fill-opacity=".13"/>
<text x="154" y="523" text-anchor="middle" fill="#ff8f5c" font-family="Arial" font-size="11" font-weight="900">BASE</text>
<text x="224" y="522" fill="#f7fff9" font-family="Arial" font-size="18" font-weight="800">Jovem de 17 anos ganha chance entre os titulares</text>
<text x="224" y="549" fill="#829588" font-family="Arial" font-size="13">Promessa pode estrear na próxima partida.</text>
<text x="807" y="539" text-anchor="end" fill="#5f7265" font-family="Arial" font-size="12">AGORA</text>
<rect x="886" y="170" width="302" height="406" rx="24" fill="#0e2015" stroke="#ffffff" stroke-opacity=".09"/>
<text x="918" y="215" fill="#f7fff9" font-family="Arial" font-size="20" font-weight="800">Repercussão</text>
<text x="918" y="247" fill="#8da194" font-family="Arial" font-size="13">Torcida e imprensa</text>
<text x="918" y="307" fill="#32e875" font-family="Arial" font-size="42" font-weight="900">84%</text>
<text x="1000" y="304" fill="#8da194" font-family="Arial" font-size="13">aprovação</text>
<rect x="918" y="331" width="238" height="10" rx="5" fill="#1a2c1f"/><rect x="918" y="331" width="200" height="10" rx="5" fill="#32e875"/>
<text x="918" y="391" fill="#8da194" font-family="Arial" font-size="13">Pressão da diretoria</text>
<text x="918" y="424" fill="#ffd447" font-family="Arial" font-size="21" font-weight="800">Moderada</text>
<text x="918" y="480" fill="#8da194" font-family="Arial" font-size="13">Assunto mais comentado</text>
<text x="918" y="513" fill="#f7fff9" font-family="Arial" font-size="17" font-weight="700">A próxima contratação</text>

</svg>