<svg xmlns="http://www.w3.org/2000/svg" width="1280" height="720" viewBox="0 0 1280 720">
<defs>
  <linearGradient id="bg" x1="0" y1="0" x2="1" y2="1">
    <stop stop-color="#07140c"/><stop offset="1" stop-color="#020705"/>
  </linearGradient>
  <linearGradient id="top" x1="0" y1="0" x2="1" y2="0">
    <stop stop-color="#32e875" stop-opacity=".20"/><stop offset="1" stop-color="#ffd447" stop-opacity=".06"/>
  </linearGradient>
  <filter id="shadow"><feDropShadow dx="0" dy="18" stdDeviation="22" flood-opacity=".45"/></filter>
</defs>
<rect width="1280" height="720" rx="34" fill="url(#bg)"/>
<rect x="24" y="24" width="1232" height="672" rx="28" fill="#09140d" stroke="#ffffff" stroke-opacity=".10" filter="url(#shadow)"/>
<rect x="24" y="24" width="1232" height="86" rx="28" fill="url(#top)"/>
<circle cx="62" cy="67" r="8" fill="#ff6b6b"/><circle cx="88" cy="67" r="8" fill="#ffd447"/><circle cx="114" cy="67" r="8" fill="#32e875"/>
<text x="154" y="62" fill="#f7fff9" font-family="Arial, sans-serif" font-size="27" font-weight="700">Competições nacionais</text>
<text x="154" y="87" fill="#91a497" font-family="Arial, sans-serif" font-size="15">Tabela, rodadas, objetivos e disputa pelo título</text>
<rect x="1080" y="49" width="130" height="36" rx="18" fill="#32e875" fill-opacity=".12" stroke="#32e875" stroke-opacity=".35"/>
<circle cx="1102" cy="67" r="5" fill="#32e875"/>
<text x="1117" y="73" fill="#32e875" font-family="Arial, sans-serif" font-size="14" font-weight="700">ONLINE</text>

<text x="90" y="165" fill="#f7fff9" font-family="Arial" font-size="29" font-weight="800">Brasileirão Série A</text>
<text x="90" y="195" fill="#8da194" font-family="Arial" font-size="16">Classificação • Rodada 28 de 38</text>
<text x="120" y="226" fill="#6f8275" font-family="Arial" font-size="12">POS</text>
<text x="174" y="226" fill="#6f8275" font-family="Arial" font-size="12">CLUBE</text>
<text x="500" y="226" fill="#6f8275" font-family="Arial" font-size="12">J</text>
<text x="580" y="226" fill="#6f8275" font-family="Arial" font-size="12">V</text>
<text x="650" y="226" fill="#6f8275" font-family="Arial" font-size="12">E</text>
<text x="720" y="226" fill="#6f8275" font-family="Arial" font-size="12">D</text>
<text x="795" y="226" fill="#6f8275" font-family="Arial" font-size="12">PTS</text>

<rect x="90" y="218" width="760" height="46" rx="10" fill="#32e875" fill-opacity=".09"/>
<text x="120" y="248" fill="#32e875" font-family="Arial" font-size="17" font-weight="800">1</text>
<text x="174" y="248" fill="#f7fff9" font-family="Arial" font-size="17" font-weight="700">Palmeiras</text>
<text x="500" y="248" fill="#b8c8bd" font-family="Arial" font-size="16">28</text>
<text x="580" y="248" fill="#b8c8bd" font-family="Arial" font-size="16">18</text>
<text x="650" y="248" fill="#b8c8bd" font-family="Arial" font-size="16">7</text>
<text x="720" y="248" fill="#b8c8bd" font-family="Arial" font-size="16">3</text>
<text x="795" y="248" fill="#8ff5af" font-family="Arial" font-size="16" font-weight="800">61</text>
<rect x="90" y="273" width="760" height="46" rx="10" fill="#ffffff" fill-opacity=".025"/>
<text x="120" y="303" fill="#f7fff9" font-family="Arial" font-size="17" font-weight="800">2</text>
<text x="174" y="303" fill="#f7fff9" font-family="Arial" font-size="17" font-weight="700">Flamengo</text>
<text x="500" y="303" fill="#b8c8bd" font-family="Arial" font-size="16">28</text>
<text x="580" y="303" fill="#b8c8bd" font-family="Arial" font-size="16">18</text>
<text x="650" y="303" fill="#b8c8bd" font-family="Arial" font-size="16">6</text>
<text x="720" y="303" fill="#b8c8bd" font-family="Arial" font-size="16">4</text>
<text x="795" y="303" fill="#8ff5af" font-family="Arial" font-size="16" font-weight="800">60</text>
<rect x="90" y="328" width="760" height="46" rx="10" fill="#ffffff" fill-opacity=".025"/>
<text x="120" y="358" fill="#f7fff9" font-family="Arial" font-size="17" font-weight="800">3</text>
<text x="174" y="358" fill="#f7fff9" font-family="Arial" font-size="17" font-weight="700">Bahia</text>
<text x="500" y="358" fill="#b8c8bd" font-family="Arial" font-size="16">28</text>
<text x="580" y="358" fill="#b8c8bd" font-family="Arial" font-size="16">15</text>
<text x="650" y="358" fill="#b8c8bd" font-family="Arial" font-size="16">7</text>
<text x="720" y="358" fill="#b8c8bd" font-family="Arial" font-size="16">6</text>
<text x="795" y="358" fill="#8ff5af" font-family="Arial" font-size="16" font-weight="800">52</text>
<rect x="90" y="383" width="760" height="46" rx="10" fill="#ffffff" fill-opacity=".025"/>
<text x="120" y="413" fill="#f7fff9" font-family="Arial" font-size="17" font-weight="800">4</text>
<text x="174" y="413" fill="#f7fff9" font-family="Arial" font-size="17" font-weight="700">Corinthians</text>
<text x="500" y="413" fill="#b8c8bd" font-family="Arial" font-size="16">28</text>
<text x="580" y="413" fill="#b8c8bd" font-family="Arial" font-size="16">14</text>
<text x="650" y="413" fill="#b8c8bd" font-family="Arial" font-size="16">8</text>
<text x="720" y="413" fill="#b8c8bd" font-family="Arial" font-size="16">6</text>
<text x="795" y="413" fill="#8ff5af" font-family="Arial" font-size="16" font-weight="800">50</text>
<rect x="90" y="438" width="760" height="46" rx="10" fill="#ffffff" fill-opacity=".025"/>
<text x="120" y="468" fill="#f7fff9" font-family="Arial" font-size="17" font-weight="800">5</text>
<text x="174" y="468" fill="#f7fff9" font-family="Arial" font-size="17" font-weight="700">São Paulo</text>
<text x="500" y="468" fill="#b8c8bd" font-family="Arial" font-size="16">28</text>
<text x="580" y="468" fill="#b8c8bd" font-family="Arial" font-size="16">13</text>
<text x="650" y="468" fill="#b8c8bd" font-family="Arial" font-size="16">8</text>
<text x="720" y="468" fill="#b8c8bd" font-family="Arial" font-size="16">7</text>
<text x="795" y="468" fill="#8ff5af" font-family="Arial" font-size="16" font-weight="800">47</text>
<rect x="90" y="493" width="760" height="46" rx="10" fill="#ffffff" fill-opacity=".025"/>
<text x="120" y="523" fill="#f7fff9" font-family="Arial" font-size="17" font-weight="800">6</text>
<text x="174" y="523" fill="#f7fff9" font-family="Arial" font-size="17" font-weight="700">Grêmio</text>
<text x="500" y="523" fill="#b8c8bd" font-family="Arial" font-size="16">28</text>
<text x="580" y="523" fill="#b8c8bd" font-family="Arial" font-size="16">12</text>
<text x="650" y="523" fill="#b8c8bd" font-family="Arial" font-size="16">7</text>
<text x="720" y="523" fill="#b8c8bd" font-family="Arial" font-size="16">9</text>
<text x="795" y="523" fill="#8ff5af" font-family="Arial" font-size="16" font-weight="800">43</text>
<rect x="900" y="160" width="280" height="430" rx="24" fill="#0e2015" stroke="#ffffff" stroke-opacity=".09"/>
<text x="930" y="205" fill="#f7fff9" font-family="Arial" font-size="21" font-weight="800">Próxima rodada</text>
<rect x="930" y="236" width="220" height="118" rx="18" fill="#ffffff" fill-opacity=".035"/>
<text x="1040" y="270" text-anchor="middle" fill="#8da194" font-family="Arial" font-size="13">HOJE • 20:30</text>
<circle cx="978" cy="312" r="24" fill="#d62828"/><text x="978" y="318" text-anchor="middle" fill="white" font-family="Arial" font-size="12" font-weight="900">FLA</text>
<text x="1040" y="318" text-anchor="middle" fill="#7e9185" font-family="Arial" font-size="14" font-weight="900">VS</text>
<circle cx="1102" cy="312" r="24" fill="#159447"/><text x="1102" y="318" text-anchor="middle" fill="white" font-family="Arial" font-size="12" font-weight="900">PAL</text>
<text x="930" y="405" fill="#8da194" font-family="Arial" font-size="13">Título projetado</text>
<text x="930" y="448" fill="#32e875" font-family="Arial" font-size="34" font-weight="900">67%</text>
<rect x="930" y="474" width="220" height="10" rx="5" fill="#1b2b20"/><rect x="930" y="474" width="147" height="10" rx="5" fill="#32e875"/>
<text x="930" y="535" fill="#8da194" font-family="Arial" font-size="13">Meta da diretoria</text>
<text x="930" y="565" fill="#f7fff9" font-family="Arial" font-size="18" font-weight="700">Classificar para a Libertadores</text>

</svg>