<svg xmlns="http://www.w3.org/2000/svg" width="1280" height="720" viewBox="0 0 1280 720">
<defs>
  <linearGradient id="bg" x1="0" y1="0" x2="1" y2="1">
    <stop stop-color="#07140c"/><stop offset="1" stop-color="#020705"/>
  </linearGradient>
  <linearGradient id="top" x1="0" y1="0" x2="1" y2="0">
    <stop stop-color="#32e875" stop-opacity=".20"/><stop offset="1" stop-color="#ffd447" stop-opacity=".06"/>
  </linearGradient>
  <filter id="shadow"><feDropShadow dx="0" dy="18" stdDeviation="22" flood-opacity=".45"/></filter>
</defs>
<rect width="1280" height="720" rx="34" fill="url(#bg)"/>
<rect x="24" y="24" width="1232" height="672" rx="28" fill="#09140d" stroke="#ffffff" stroke-opacity=".10" filter="url(#shadow)"/>
<rect x="24" y="24" width="1232" height="86" rx="28" fill="url(#top)"/>
<circle cx="62" cy="67" r="8" fill="#ff6b6b"/><circle cx="88" cy="67" r="8" fill="#ffd447"/><circle cx="114" cy="67" r="8" fill="#32e875"/>
<text x="154" y="62" fill="#f7fff9" font-family="Arial, sans-serif" font-size="27" font-weight="700">Multiplayer em tempo real</text>
<text x="154" y="87" fill="#91a497" font-family="Arial, sans-serif" font-size="15">Entre em salas, crie ligas e enfrente outros técnicos</text>
<rect x="1080" y="49" width="130" height="36" rx="18" fill="#32e875" fill-opacity=".12" stroke="#32e875" stroke-opacity=".35"/>
<circle cx="1102" cy="67" r="5" fill="#32e875"/>
<text x="1117" y="73" fill="#32e875" font-family="Arial, sans-serif" font-size="14" font-weight="700">ONLINE</text>

<text x="82" y="160" fill="#f7fff9" font-family="Arial" font-size="28" font-weight="800">Lobby online</text>
<text x="82" y="185" fill="#8da194" font-family="Arial" font-size="15">Escolha uma sala ou crie sua própria competição</text>

<rect x="82" y="196" width="720" height="72" rx="16" fill="#ffffff" fill-opacity=".035" stroke="#ffffff" stroke-opacity=".07"/>
<circle cx="119" cy="232" r="16" fill="#32e875" fill-opacity=".18"/><circle cx="119" cy="232" r="6" fill="#32e875"/>
<text x="154" y="225" fill="#f7fff9" font-family="Arial" font-size="17" font-weight="800">Sala 01 — Série A</text>
<text x="154" y="248" fill="#829588" font-family="Arial" font-size="13">Competitivo</text>
<text x="680" y="226" fill="#b8c8bd" font-family="Arial" font-size="15" text-anchor="end">18/20</text>
<rect x="704" y="213" width="72" height="38" rx="12" fill="#32e875" fill-opacity=".12" stroke="#32e875" stroke-opacity=".25"/>
<text x="740" y="237" text-anchor="middle" fill="#32e875" font-family="Arial" font-size="13" font-weight="800">ENTRAR</text>
<rect x="82" y="288" width="720" height="72" rx="16" fill="#ffffff" fill-opacity=".035" stroke="#ffffff" stroke-opacity=".07"/>
<circle cx="119" cy="324" r="16" fill="#ffd447" fill-opacity=".18"/><circle cx="119" cy="324" r="6" fill="#ffd447"/>
<text x="154" y="317" fill="#f7fff9" font-family="Arial" font-size="17" font-weight="800">Sala 07 — Mata-mata</text>
<text x="154" y="340" fill="#829588" font-family="Arial" font-size="13">Eliminatórias</text>
<text x="680" y="318" fill="#b8c8bd" font-family="Arial" font-size="15" text-anchor="end">12/16</text>
<rect x="704" y="305" width="72" height="38" rx="12" fill="#ffd447" fill-opacity=".12" stroke="#ffd447" stroke-opacity=".25"/>
<text x="740" y="329" text-anchor="middle" fill="#ffd447" font-family="Arial" font-size="13" font-weight="800">ENTRAR</text>
<rect x="82" y="380" width="720" height="72" rx="16" fill="#ffffff" fill-opacity=".035" stroke="#ffffff" stroke-opacity=".07"/>
<circle cx="119" cy="416" r="16" fill="#73a7ff" fill-opacity=".18"/><circle cx="119" cy="416" r="6" fill="#73a7ff"/>
<text x="154" y="409" fill="#f7fff9" font-family="Arial" font-size="17" font-weight="800">Liga dos Amigos</text>
<text x="154" y="432" fill="#829588" font-family="Arial" font-size="13">Privada</text>
<text x="680" y="410" fill="#b8c8bd" font-family="Arial" font-size="15" text-anchor="end">7/12</text>
<rect x="704" y="397" width="72" height="38" rx="12" fill="#73a7ff" fill-opacity=".12" stroke="#73a7ff" stroke-opacity=".25"/>
<text x="740" y="421" text-anchor="middle" fill="#73a7ff" font-family="Arial" font-size="13" font-weight="800">ENTRAR</text>
<rect x="82" y="472" width="720" height="72" rx="16" fill="#ffffff" fill-opacity=".035" stroke="#ffffff" stroke-opacity=".07"/>
<circle cx="119" cy="508" r="16" fill="#ff8f5c" fill-opacity=".18"/><circle cx="119" cy="508" r="6" fill="#ff8f5c"/>
<text x="154" y="501" fill="#f7fff9" font-family="Arial" font-size="17" font-weight="800">Copa Nordeste</text>
<text x="154" y="524" fill="#829588" font-family="Arial" font-size="13">Regional</text>
<text x="680" y="502" fill="#b8c8bd" font-family="Arial" font-size="15" text-anchor="end">15/16</text>
<rect x="704" y="489" width="72" height="38" rx="12" fill="#ff8f5c" fill-opacity=".12" stroke="#ff8f5c" stroke-opacity=".25"/>
<text x="740" y="513" text-anchor="middle" fill="#ff8f5c" font-family="Arial" font-size="13" font-weight="800">ENTRAR</text>
<rect x="858" y="164" width="330" height="382" rx="24" fill="#0e2015" stroke="#ffffff" stroke-opacity=".09"/>
<text x="892" y="210" fill="#f7fff9" font-family="Arial" font-size="21" font-weight="800">Técnicos conectados</text>
<text x="892" y="237" fill="#32e875" font-family="Arial" font-size="14">2.841 jogadores online</text>
<circle cx="928" cy="260" r="22" fill="#d62828"/><circle cx="928" cy="260" r="27" fill="none" stroke="#ffffff" stroke-opacity=".10"/><circle cx="986" cy="260" r="22" fill="#159447"/><circle cx="986" cy="260" r="27" fill="none" stroke="#ffffff" stroke-opacity=".10"/><circle cx="1044" cy="260" r="22" fill="#2474c6"/><circle cx="1044" cy="260" r="27" fill="none" stroke="#ffffff" stroke-opacity=".10"/><circle cx="1102" cy="260" r="22" fill="#ffd447"/><circle cx="1102" cy="260" r="27" fill="none" stroke="#ffffff" stroke-opacity=".10"/><circle cx="928" cy="330" r="22" fill="#8a5cf6"/><circle cx="928" cy="330" r="27" fill="none" stroke="#ffffff" stroke-opacity=".10"/><circle cx="986" cy="330" r="22" fill="#ff8f5c"/><circle cx="986" cy="330" r="27" fill="none" stroke="#ffffff" stroke-opacity=".10"/><circle cx="1044" cy="330" r="22" fill="#43a5dc"/><circle cx="1044" cy="330" r="27" fill="none" stroke="#ffffff" stroke-opacity=".10"/><circle cx="1102" cy="330" r="22" fill="#e9ecef"/><circle cx="1102" cy="330" r="27" fill="none" stroke="#ffffff" stroke-opacity=".10"/>
<rect x="892" y="430" width="262" height="54" rx="15" fill="#32e875"/>
<text x="1023" y="463" text-anchor="middle" fill="#05220e" font-family="Arial" font-size="15" font-weight="900">+ CRIAR NOVA SALA</text>
<text x="892" y="521" fill="#7e9185" font-family="Arial" font-size="13">Convide amigos, defina regras e dispute.</text>

</svg>